<svg width="212" height="220" viewBox="0 0 212 220" fill="none" xmlns="http://www.w3.org/2000/svg">
<g filter="url(#filter0_d_252_2)">
<path d="M96.9544 6.94528C98.9338 4.80397 102.318 4.80397 104.298 6.94528L122.767 26.925C123.948 28.2025 125.708 28.7743 127.414 28.4349L154.099 23.1269C156.96 22.558 159.698 24.5473 160.04 27.4431L163.238 54.463C163.443 56.1906 164.531 57.6877 166.11 58.416L190.82 69.8072C193.468 71.028 194.514 74.2467 193.089 76.791L179.794 100.53C178.944 102.048 178.944 103.899 179.794 105.416L193.089 129.156C194.514 131.7 193.468 134.919 190.82 136.14L166.11 147.531C164.531 148.259 163.443 149.756 163.238 151.484L160.04 178.504C159.698 181.399 156.96 183.389 154.1 182.82L127.414 177.512C125.708 177.172 123.948 177.744 122.767 179.022L104.298 199.001C102.318 201.143 98.9338 201.143 96.9544 199.001L78.4852 179.022C77.3043 177.744 75.5444 177.172 73.8381 177.512L47.1525 182.82C44.2924 183.389 41.5544 181.399 41.2117 178.504L38.0136 151.484C37.8091 149.756 36.7214 148.259 35.1416 147.531L10.4324 136.14C7.78422 134.919 6.7384 131.7 8.16323 129.156L21.4578 105.416C22.3078 103.899 22.3078 102.048 21.4578 100.53L8.16323 76.791C6.7384 74.2467 7.78422 71.028 10.4324 69.8072L35.1416 58.416C36.7214 57.6877 37.8091 56.1906 38.0136 54.463L41.2117 27.4431C41.5544 24.5473 44.2924 22.558 47.1525 23.1269L73.8381 28.4349C75.5443 28.7743 77.3043 28.2025 78.4852 26.925L96.9544 6.94528Z" fill="url(#paint0_radial_252_2)"/>
</g>
<g filter="url(#filter1_d_252_2)">
<path d="M71.876 141.973C71.876 140.244 72.0426 138.536 72.376 136.848C72.7301 135.161 73.1989 133.578 73.7822 132.098C74.3656 130.619 75.1051 129.13 76.001 127.63C76.9176 126.109 77.8447 124.723 78.7822 123.473C79.7406 122.203 80.8551 120.9 82.126 119.567C83.3968 118.213 84.5947 117.005 85.7197 115.942C86.8656 114.88 88.1572 113.744 89.5947 112.536C91.0531 111.307 92.3447 110.244 93.4697 109.348C94.5947 108.453 95.876 107.453 97.3135 106.348C97.6676 106.078 97.9385 105.869 98.126 105.723C101.501 103.098 104.011 100.15 105.657 96.8796C107.303 93.6088 108.126 90.3067 108.126 86.9734C108.126 82.5776 106.949 79.1921 104.595 76.8171C102.261 74.4213 98.8551 73.2234 94.376 73.2234C92.4176 73.2234 90.4072 73.6921 88.3447 74.6296C86.3031 75.5463 84.5947 76.7755 83.2197 78.3171C85.6781 78.6296 87.7301 79.7338 89.376 81.6296C91.0426 83.5046 91.876 85.7026 91.876 88.2234C91.876 90.9942 90.8968 93.3588 88.9385 95.3171C87.001 97.2546 84.6468 98.2234 81.876 98.2234C79.9385 98.2234 78.1676 97.7234 76.5635 96.7234C74.9593 95.7026 73.7406 94.3484 72.9072 92.6609C71.6572 90.3067 71.0322 87.7859 71.0322 85.0984C71.0322 82.9109 71.4489 80.7546 72.2822 78.6296C73.1156 76.5046 74.3551 74.5255 76.001 72.6921C77.6468 70.838 79.5947 69.2026 81.8447 67.7859C84.0947 66.3692 86.7301 65.2546 89.751 64.4421C92.7718 63.6296 95.9801 63.2234 99.376 63.2234C103.605 63.2234 107.428 63.6505 110.845 64.5046C114.282 65.338 117.136 66.4734 119.407 67.9109C121.678 69.3276 123.574 71.0151 125.095 72.9734C126.616 74.9109 127.709 76.9421 128.376 79.0671C129.043 81.1713 129.376 83.3901 129.376 85.7234C129.376 87.9942 129.126 90.1401 128.626 92.1609C128.147 94.1609 127.501 95.9213 126.688 97.4421C125.897 98.963 124.897 100.432 123.688 101.848C122.48 103.265 121.251 104.484 120.001 105.505C118.772 106.525 117.376 107.578 115.813 108.661C114.251 109.744 112.803 110.692 111.47 111.505C110.136 112.296 108.678 113.203 107.095 114.223C105.532 115.223 104.209 116.14 103.126 116.973C102.022 117.807 100.709 118.744 99.1885 119.786C97.6885 120.828 96.501 121.661 95.626 122.286C94.7718 122.89 93.8031 123.703 92.7197 124.723C91.6572 125.744 90.6885 126.859 89.8135 128.067C92.1885 127.338 94.5426 126.973 96.876 126.973H113.126C114.001 126.973 114.782 126.64 115.47 125.973C116.157 125.286 116.678 124.411 117.032 123.348C117.407 122.286 117.678 121.213 117.845 120.13C118.032 119.046 118.126 117.994 118.126 116.973V111.973H129.376V141.973H71.876Z" fill="white"/>
</g>
<defs>
<filter id="filter0_d_252_2" x="1.72441" y="0.539355" width="209.803" height="218.868" filterUnits="userSpaceOnUse" color-interpolation-filters="sRGB">
<feFlood flood-opacity="0" result="BackgroundImageFix"/>
<feColorMatrix in="SourceAlpha" type="matrix" values="0 0 0 0 0 0 0 0 0 0 0 0 0 0 0 0 0 0 127 0" result="hardAlpha"/>
<feOffset dx="6" dy="7"/>
<feGaussianBlur stdDeviation="5.9"/>
<feComposite in2="hardAlpha" operator="out"/>
<feColorMatrix type="matrix" values="0 0 0 0 0 0 0 0 0 0 0 0 0 0 0 0 0 0 0.25 0"/>
<feBlend mode="normal" in2="BackgroundImageFix" result="effect1_dropShadow_252_2"/>
<feBlend mode="normal" in="SourceGraphic" in2="effect1_dropShadow_252_2" result="shape"/>
</filter>
<filter id="filter1_d_252_2" x="67.0322" y="63.2234" width="66.3438" height="86.75" filterUnits="userSpaceOnUse" color-interpolation-filters="sRGB">
<feFlood flood-opacity="0" result="BackgroundImageFix"/>
<feColorMatrix in="SourceAlpha" type="matrix" values="0 0 0 0 0 0 0 0 0 0 0 0 0 0 0 0 0 0 127 0" result="hardAlpha"/>
<feOffset dy="4"/>
<feGaussianBlur stdDeviation="2"/>
<feComposite in2="hardAlpha" operator="out"/>
<feColorMatrix type="matrix" values="0 0 0 0 0 0 0 0 0 0 0 0 0 0 0 0 0 0 0.25 0"/>
<feBlend mode="normal" in2="BackgroundImageFix" result="effect1_dropShadow_252_2"/>
<feBlend mode="normal" in="SourceGraphic" in2="effect1_dropShadow_252_2" result="shape"/>
</filter>
<radialGradient id="paint0_radial_252_2" cx="0" cy="0" r="1" gradientUnits="userSpaceOnUse" gradientTransform="translate(101.737 106.307) rotate(58.134) scale(145.22)">
<stop stop-color="#34B6FF"/>
<stop offset="1" stop-color="#0864AE"/>
</radialGradient>
</defs>
</svg>
