<svg width="212" height="220" viewBox="0 0 212 220" fill="none" xmlns="http://www.w3.org/2000/svg">
<g filter="url(#filter0_d_252_6)">
<path d="M96.4544 6.94528C98.4338 4.80397 101.818 4.80397 103.798 6.94528L122.267 26.925C123.448 28.2025 125.208 28.7743 126.914 28.4349L153.599 23.1269C156.46 22.558 159.198 24.5473 159.54 27.4431L162.738 54.463C162.943 56.1906 164.031 57.6877 165.61 58.416L190.32 69.8072C192.968 71.028 194.014 74.2467 192.589 76.791L179.294 100.53C178.444 102.048 178.444 103.899 179.294 105.416L192.589 129.156C194.014 131.7 192.968 134.919 190.32 136.14L165.61 147.531C164.031 148.259 162.943 149.756 162.738 151.484L159.54 178.504C159.198 181.399 156.46 183.389 153.6 182.82L126.914 177.512C125.208 177.172 123.448 177.744 122.267 179.022L103.798 199.001C101.818 201.143 98.4338 201.143 96.4544 199.001L77.9852 179.022C76.8043 177.744 75.0444 177.172 73.3381 177.512L46.6525 182.82C43.7924 183.389 41.0544 181.399 40.7117 178.504L37.5136 151.484C37.3091 149.756 36.2214 148.259 34.6416 147.531L9.93241 136.14C7.28422 134.919 6.2384 131.7 7.66323 129.156L20.9578 105.416C21.8078 103.899 21.8078 102.048 20.9578 100.53L7.66323 76.791C6.2384 74.2467 7.28422 71.028 9.9324 69.8072L34.6416 58.416C36.2214 57.6877 37.3091 56.1906 37.5136 54.463L40.7117 27.4431C41.0544 24.5473 43.7924 22.558 46.6525 23.1269L73.3381 28.4349C75.0443 28.7743 76.8043 28.2025 77.9852 26.925L96.4544 6.94528Z" fill="url(#paint0_radial_252_6)"/>
</g>
<g filter="url(#filter1_d_252_6)">
<path d="M83.3447 128.13C84.7197 129.671 86.4281 130.911 88.4697 131.848C90.5322 132.765 92.5426 133.223 94.501 133.223C98.9801 133.223 102.386 132.036 104.72 129.661C107.074 127.265 108.251 123.869 108.251 119.473C108.251 111.973 102.834 108.223 92.001 108.223V98.2234C94.4385 98.2234 96.5531 98.0359 98.3447 97.6609C100.157 97.2651 101.605 96.7442 102.688 96.0984C103.772 95.4526 104.647 94.6401 105.313 93.6609C105.98 92.6609 106.428 91.6401 106.657 90.5984C106.886 89.5359 107.001 88.3276 107.001 86.9734C107.001 82.4526 106.011 79.0359 104.032 76.7234C102.053 74.3901 98.876 73.2234 94.501 73.2234C92.5426 73.2234 90.5322 73.6921 88.4697 74.6296C86.4281 75.5463 84.7197 76.7755 83.3447 78.3171C85.8031 78.6296 87.8551 79.7338 89.501 81.6296C91.1676 83.5046 92.001 85.7026 92.001 88.2234C92.001 90.9942 91.0218 93.3588 89.0635 95.3171C87.126 97.2546 84.7718 98.2234 82.001 98.2234C80.0635 98.2234 78.2926 97.7234 76.6885 96.7234C75.0843 95.7026 73.8656 94.3484 73.0322 92.6609C71.7822 90.3067 71.1572 87.7859 71.1572 85.0984C71.1572 82.9109 71.5739 80.7546 72.4072 78.6296C73.2406 76.5046 74.4801 74.5255 76.126 72.6921C77.7718 70.838 79.7197 69.2026 81.9697 67.7859C84.2197 66.3692 86.8551 65.2546 89.876 64.4421C92.8968 63.6296 96.1051 63.2234 99.501 63.2234C102.543 63.2234 105.366 63.4421 107.97 63.8796C110.574 64.3171 112.845 64.9317 114.782 65.7234C116.72 66.4942 118.459 67.4317 120.001 68.5359C121.543 69.6401 122.824 70.838 123.845 72.1296C124.866 73.4213 125.709 74.8276 126.376 76.3484C127.043 77.8692 127.522 79.4005 127.813 80.9421C128.105 82.463 128.251 84.0567 128.251 85.7234V85.7859V85.8171V85.8796V85.9109V85.9734V86.0046V86.0671V86.1296V86.1609V86.2234V86.2546V86.3171V86.3484L128.22 86.4109V86.4421V86.5046V86.5359V86.5984V86.6296V86.6921V86.7234V86.7859V86.8171L128.188 86.8796V86.9109V86.9734V87.0046V87.0671V87.0984V87.1609L128.157 87.1921V87.2234V87.2859V87.3171V87.3796V87.4109L128.126 87.4734V87.5046V87.5359V87.5984V87.6296L128.095 87.6921V87.7234V87.7546V87.8171L128.063 87.8484V87.9109V87.9421V87.9734L128.032 88.0359V88.0671V88.1296V88.1609L128.001 88.1921V88.2546V88.2859V88.3171L127.97 88.3796V88.4109V88.4421L127.938 88.5046V88.5359V88.5671V88.6296L127.907 88.6609V88.6921V88.7546L127.876 88.7859V88.8171V88.8796L127.845 88.9109V88.9421V88.9734L127.813 89.0359V89.0671V89.0984L127.782 89.1609V89.1921V89.2234L127.751 89.2546V89.3171V89.3484L127.72 89.3796V89.4109L127.688 89.4734V89.5046V89.5359L127.657 89.5671V89.6296L127.626 89.6609V89.6921V89.7234L127.595 89.7859V89.8171L127.563 89.8484V89.8796V89.9421L127.532 89.9734V90.0046L127.501 90.0359V90.0671L127.47 90.1296V90.1609V90.1921L127.438 90.2234V90.2546L127.407 90.3171V90.3484L127.376 90.3796V90.4109L127.345 90.4421V90.5046V90.5359L127.313 90.5671V90.5984C125.751 94.4317 122.491 97.6921 117.532 100.38C115.511 101.463 113.366 102.359 111.095 103.067C113.866 103.505 116.355 104.203 118.563 105.161C120.793 106.098 122.73 107.286 124.376 108.723C126.022 110.161 127.282 111.9 128.157 113.942C129.053 115.963 129.501 118.223 129.501 120.723C129.501 123.057 129.168 125.286 128.501 127.411C127.834 129.515 126.741 131.546 125.22 133.505C123.699 135.442 121.803 137.13 119.532 138.567C117.261 139.984 114.407 141.119 110.97 141.973C107.553 142.807 103.73 143.223 99.501 143.223C96.1051 143.223 92.8968 142.817 89.876 142.005C86.8551 141.192 84.2197 140.078 81.9697 138.661C79.7197 137.244 77.7718 135.619 76.126 133.786C74.4801 131.932 73.2406 129.942 72.4072 127.817C71.5739 125.692 71.1572 123.536 71.1572 121.348C71.1572 118.661 71.7822 116.14 73.0322 113.786C73.8656 112.098 75.0843 110.755 76.6885 109.755C78.2926 108.734 80.0635 108.223 82.001 108.223C84.7718 108.223 87.126 109.203 89.0635 111.161C91.0218 113.098 92.001 115.453 92.001 118.223C92.001 120.744 91.1676 122.953 89.501 124.848C87.8551 126.723 85.8031 127.817 83.3447 128.13Z" fill="white"/>
</g>
<defs>
<filter id="filter0_d_252_6" x="1.22441" y="0.539355" width="209.803" height="218.868" filterUnits="userSpaceOnUse" color-interpolation-filters="sRGB">
<feFlood flood-opacity="0" result="BackgroundImageFix"/>
<feColorMatrix in="SourceAlpha" type="matrix" values="0 0 0 0 0 0 0 0 0 0 0 0 0 0 0 0 0 0 127 0" result="hardAlpha"/>
<feOffset dx="6" dy="7"/>
<feGaussianBlur stdDeviation="5.9"/>
<feComposite in2="hardAlpha" operator="out"/>
<feColorMatrix type="matrix" values="0 0 0 0 0 0 0 0 0 0 0 0 0 0 0 0 0 0 0.25 0"/>
<feBlend mode="normal" in2="BackgroundImageFix" result="effect1_dropShadow_252_6"/>
<feBlend mode="normal" in="SourceGraphic" in2="effect1_dropShadow_252_6" result="shape"/>
</filter>
<filter id="filter1_d_252_6" x="67.1572" y="63.2234" width="66.3438" height="88" filterUnits="userSpaceOnUse" color-interpolation-filters="sRGB">
<feFlood flood-opacity="0" result="BackgroundImageFix"/>
<feColorMatrix in="SourceAlpha" type="matrix" values="0 0 0 0 0 0 0 0 0 0 0 0 0 0 0 0 0 0 127 0" result="hardAlpha"/>
<feOffset dy="4"/>
<feGaussianBlur stdDeviation="2"/>
<feComposite in2="hardAlpha" operator="out"/>
<feColorMatrix type="matrix" values="0 0 0 0 0 0 0 0 0 0 0 0 0 0 0 0 0 0 0.25 0"/>
<feBlend mode="normal" in2="BackgroundImageFix" result="effect1_dropShadow_252_6"/>
<feBlend mode="normal" in="SourceGraphic" in2="effect1_dropShadow_252_6" result="shape"/>
</filter>
<radialGradient id="paint0_radial_252_6" cx="0" cy="0" r="1" gradientUnits="userSpaceOnUse" gradientTransform="translate(101.237 106.307) rotate(58.134) scale(145.22)">
<stop stop-color="#C8C8C8"/>
<stop offset="1" stop-color="#6A6A6A"/>
</radialGradient>
</defs>
</svg>
