<svg width="212" height="219" viewBox="0 0 212 219" fill="none" xmlns="http://www.w3.org/2000/svg">
<g filter="url(#filter0_d_252_10)">
<path d="M96.4544 6.41818C98.4338 4.27687 101.818 4.27687 103.798 6.41818L122.267 26.3979C123.448 27.6754 125.208 28.2472 126.914 27.9078L153.599 22.5998C156.46 22.0309 159.198 24.0202 159.54 26.916L162.738 53.9359C162.943 55.6635 164.031 57.1606 165.61 57.8889L190.32 69.2801C192.968 70.5009 194.014 73.7196 192.589 76.2639L179.294 100.003C178.444 101.521 178.444 103.372 179.294 104.889L192.589 128.629C194.014 131.173 192.968 134.392 190.32 135.613L165.61 147.004C164.031 147.732 162.943 149.229 162.738 150.957L159.54 177.977C159.198 180.872 156.46 182.862 153.6 182.293L126.914 176.985C125.208 176.645 123.448 177.217 122.267 178.495L103.798 198.474C101.818 200.616 98.4338 200.616 96.4544 198.474L77.9852 178.495C76.8043 177.217 75.0444 176.645 73.3381 176.985L46.6525 182.293C43.7924 182.862 41.0544 180.872 40.7117 177.977L37.5136 150.957C37.3091 149.229 36.2214 147.732 34.6416 147.004L9.93241 135.613C7.28422 134.392 6.2384 131.173 7.66323 128.629L20.9578 104.889C21.8078 103.372 21.8078 101.521 20.9578 100.003L7.66323 76.2639C6.2384 73.7196 7.28422 70.5009 9.9324 69.2801L34.6416 57.8889C36.2214 57.1606 37.3091 55.6635 37.5136 53.9359L40.7117 26.916C41.0544 24.0202 43.7924 22.0309 46.6525 22.5998L73.3381 27.9078C75.0443 28.2472 76.8043 27.6754 77.9852 26.3979L96.4544 6.41818Z" fill="url(#paint0_radial_252_10)"/>
</g>
<g filter="url(#filter1_d_252_10)">
<path d="M89.501 63.9463H109.501C109.501 67.863 109.001 71.6442 108.001 75.29C107.022 78.915 105.699 82.2588 104.032 85.3213C102.366 88.3838 100.209 91.4671 97.5635 94.5713C94.9385 97.6755 92.2093 100.53 89.376 103.134C86.5426 105.717 83.251 108.488 79.501 111.446H100.751V99.4775C106.063 94.2275 109.678 89.0505 111.595 83.9463H120.751V111.446H130.751V121.446H120.751V131.446H130.751V141.446H88.251V131.446H100.751V121.446H69.501V111.446C71.9176 109.03 74.1156 106.457 76.0947 103.728C78.0739 100.998 79.7406 98.2484 81.0947 95.4775C82.4489 92.7067 83.626 89.9775 84.626 87.29C85.6468 84.5817 86.4697 81.8109 87.0947 78.9775C87.7406 76.1442 88.2406 73.5713 88.5947 71.2588C88.9697 68.9255 89.2718 66.488 89.501 63.9463Z" fill="white"/>
</g>
<defs>
<filter id="filter0_d_252_10" x="1.22441" y="0.0122557" width="209.803" height="218.868" filterUnits="userSpaceOnUse" color-interpolation-filters="sRGB">
<feFlood flood-opacity="0" result="BackgroundImageFix"/>
<feColorMatrix in="SourceAlpha" type="matrix" values="0 0 0 0 0 0 0 0 0 0 0 0 0 0 0 0 0 0 127 0" result="hardAlpha"/>
<feOffset dx="6" dy="7"/>
<feGaussianBlur stdDeviation="5.9"/>
<feComposite in2="hardAlpha" operator="out"/>
<feColorMatrix type="matrix" values="0 0 0 0 0 0 0 0 0 0 0 0 0 0 0 0 0 0 0.25 0"/>
<feBlend mode="normal" in2="BackgroundImageFix" result="effect1_dropShadow_252_10"/>
<feBlend mode="normal" in="SourceGraphic" in2="effect1_dropShadow_252_10" result="shape"/>
</filter>
<filter id="filter1_d_252_10" x="65.501" y="63.9463" width="69.25" height="85.5" filterUnits="userSpaceOnUse" color-interpolation-filters="sRGB">
<feFlood flood-opacity="0" result="BackgroundImageFix"/>
<feColorMatrix in="SourceAlpha" type="matrix" values="0 0 0 0 0 0 0 0 0 0 0 0 0 0 0 0 0 0 127 0" result="hardAlpha"/>
<feOffset dy="4"/>
<feGaussianBlur stdDeviation="2"/>
<feComposite in2="hardAlpha" operator="out"/>
<feColorMatrix type="matrix" values="0 0 0 0 0 0 0 0 0 0 0 0 0 0 0 0 0 0 0.25 0"/>
<feBlend mode="normal" in2="BackgroundImageFix" result="effect1_dropShadow_252_10"/>
<feBlend mode="normal" in="SourceGraphic" in2="effect1_dropShadow_252_10" result="shape"/>
</filter>
<radialGradient id="paint0_radial_252_10" cx="0" cy="0" r="1" gradientUnits="userSpaceOnUse" gradientTransform="translate(101.237 105.78) rotate(58.134) scale(145.22)">
<stop stop-color="#EF7403"/>
<stop offset="1" stop-color="#C67259"/>
</radialGradient>
</defs>
</svg>
