<svg width="212" height="219" viewBox="0 0 212 219" fill="none" xmlns="http://www.w3.org/2000/svg">
<g filter="url(#filter0_d_252_14)">
<path d="M96.9544 6.41818C98.9338 4.27687 102.318 4.27687 104.298 6.41818L122.767 26.3979C123.948 27.6754 125.708 28.2472 127.414 27.9078L154.099 22.5998C156.96 22.0309 159.698 24.0202 160.04 26.916L163.238 53.9359C163.443 55.6635 164.531 57.1606 166.11 57.8889L190.82 69.2801C193.468 70.5009 194.514 73.7196 193.089 76.2639L179.794 100.003C178.944 101.521 178.944 103.372 179.794 104.889L193.089 128.629C194.514 131.173 193.468 134.392 190.82 135.613L166.11 147.004C164.531 147.732 163.443 149.229 163.238 150.957L160.04 177.977C159.698 180.872 156.96 182.862 154.1 182.293L127.414 176.985C125.708 176.645 123.948 177.217 122.767 178.495L104.298 198.474C102.318 200.616 98.9338 200.616 96.9544 198.474L78.4852 178.495C77.3043 177.217 75.5444 176.645 73.8381 176.985L47.1525 182.293C44.2924 182.862 41.5544 180.872 41.2117 177.977L38.0136 150.957C37.8091 149.229 36.7214 147.732 35.1416 147.004L10.4324 135.613C7.78422 134.392 6.7384 131.173 8.16323 128.629L21.4578 104.889C22.3078 103.372 22.3078 101.521 21.4578 100.003L8.16323 76.2639C6.7384 73.7196 7.78422 70.5009 10.4324 69.2801L35.1416 57.8889C36.7214 57.1606 37.8091 55.6635 38.0136 53.9359L41.2117 26.916C41.5544 24.0202 44.2924 22.0309 47.1525 22.5998L73.8381 27.9078C75.5443 28.2472 77.3043 27.6754 78.4852 26.3979L96.9544 6.41818Z" fill="url(#paint0_radial_252_14)"/>
</g>
<g filter="url(#filter1_d_252_14)">
<path d="M86.5947 79.8838L84.4385 95.7588C87.9176 94.6755 91.6989 93.8525 95.7822 93.29C99.8864 92.7067 103.407 92.415 106.345 92.415C110.324 92.415 113.824 93.0296 116.845 94.2588C119.866 95.4671 122.313 97.1963 124.188 99.4463C126.063 101.696 127.47 104.353 128.407 107.415C129.345 110.457 129.813 113.884 129.813 117.696C129.813 120.03 129.48 122.342 128.813 124.634C128.147 126.905 127.043 129.144 125.501 131.353C123.98 133.561 122.095 135.498 119.845 137.165C117.595 138.811 114.741 140.144 111.282 141.165C107.845 142.186 104.022 142.696 99.8135 142.696C96.4176 142.696 93.2093 142.29 90.1885 141.478C87.1676 140.665 84.5322 139.55 82.2822 138.134C80.0322 136.717 78.0843 135.092 76.4385 133.259C74.7926 131.405 73.5531 129.415 72.7197 127.29C71.8864 125.165 71.4697 123.009 71.4697 120.821C71.4697 118.134 72.0947 115.613 73.3447 113.259C74.1781 111.571 75.3968 110.228 77.001 109.228C78.6051 108.207 80.376 107.696 82.3135 107.696C85.0843 107.696 87.4385 108.675 89.376 110.634C91.3343 112.571 92.3135 114.925 92.3135 117.696C92.3135 120.217 91.4801 122.425 89.8135 124.321C88.1676 126.196 86.1156 127.29 83.6572 127.603C85.0322 129.144 86.7406 130.384 88.7822 131.321C90.8447 132.238 92.8551 132.696 94.8135 132.696C99.2926 132.696 102.699 131.509 105.032 129.134C107.386 126.738 108.563 123.342 108.563 118.946C108.563 113.3 107.386 109.269 105.032 106.853C102.678 104.436 98.6364 103.228 92.9072 103.228C90.3239 103.228 87.2093 103.467 83.5635 103.946L73.5635 101.446L74.001 101.196L79.126 63.9463H88.5635C88.9801 64.0505 90.0531 64.3421 91.7822 64.8213C93.5322 65.2796 94.751 65.5817 95.4385 65.7275C96.1468 65.8525 97.3656 66.0088 99.0947 66.1963C100.845 66.363 102.751 66.4463 104.813 66.4463C113.605 66.4463 121.105 65.613 127.313 63.9463L128.563 67.6963C127.668 70.4046 126.386 72.7588 124.72 74.7588C123.053 76.7588 121.136 78.3213 118.97 79.4463C116.824 80.5713 114.584 81.3942 112.251 81.915C109.918 82.4359 107.438 82.6963 104.813 82.6963C96.7093 82.6963 90.6364 81.7588 86.5947 79.8838Z" fill="white"/>
</g>
<defs>
<filter id="filter0_d_252_14" x="1.72441" y="0.0122557" width="209.803" height="218.868" filterUnits="userSpaceOnUse" color-interpolation-filters="sRGB">
<feFlood flood-opacity="0" result="BackgroundImageFix"/>
<feColorMatrix in="SourceAlpha" type="matrix" values="0 0 0 0 0 0 0 0 0 0 0 0 0 0 0 0 0 0 127 0" result="hardAlpha"/>
<feOffset dx="6" dy="7"/>
<feGaussianBlur stdDeviation="5.9"/>
<feComposite in2="hardAlpha" operator="out"/>
<feColorMatrix type="matrix" values="0 0 0 0 0 0 0 0 0 0 0 0 0 0 0 0 0 0 0.25 0"/>
<feBlend mode="normal" in2="BackgroundImageFix" result="effect1_dropShadow_252_14"/>
<feBlend mode="normal" in="SourceGraphic" in2="effect1_dropShadow_252_14" result="shape"/>
</filter>
<filter id="filter1_d_252_14" x="67.4697" y="63.9463" width="66.3438" height="86.75" filterUnits="userSpaceOnUse" color-interpolation-filters="sRGB">
<feFlood flood-opacity="0" result="BackgroundImageFix"/>
<feColorMatrix in="SourceAlpha" type="matrix" values="0 0 0 0 0 0 0 0 0 0 0 0 0 0 0 0 0 0 127 0" result="hardAlpha"/>
<feOffset dy="4"/>
<feGaussianBlur stdDeviation="2"/>
<feComposite in2="hardAlpha" operator="out"/>
<feColorMatrix type="matrix" values="0 0 0 0 0 0 0 0 0 0 0 0 0 0 0 0 0 0 0.25 0"/>
<feBlend mode="normal" in2="BackgroundImageFix" result="effect1_dropShadow_252_14"/>
<feBlend mode="normal" in="SourceGraphic" in2="effect1_dropShadow_252_14" result="shape"/>
</filter>
<radialGradient id="paint0_radial_252_14" cx="0" cy="0" r="1" gradientUnits="userSpaceOnUse" gradientTransform="translate(101.737 105.78) rotate(58.134) scale(145.22)">
<stop stop-color="#FF0000"/>
<stop offset="1" stop-color="#B47B00"/>
</radialGradient>
</defs>
</svg>
