<svg width="632" height="90" viewBox="0 0 632 90" fill="none" xmlns="http://www.w3.org/2000/svg">
<path d="M0.478249 89.3409V62.1705H5.1487C6.71689 60.9205 8.18279 59.1591 9.54643 56.8864C10.9101 54.6136 12.0692 51.5 13.0237 47.5455C13.9782 43.5909 14.6373 38.4773 15.001 32.2045L16.8419 2.68182H61.4669V62.1705H69.2396V89.2727H57.1033V72.5H12.6146V89.3409H0.478249ZM19.876 62.1705H49.3305V13.2841H28.2282L27.1373 32.2045C26.8419 36.9545 26.3646 41.2045 25.7055 44.9545C25.0464 48.7045 24.2169 52.0114 23.2169 54.875C22.2169 57.7159 21.1032 60.1477 19.876 62.1705ZM88.3063 73.5568C84.9881 73.5568 81.9995 72.9659 79.3404 71.7841C76.704 70.5795 74.6131 68.8068 73.0677 66.4659C71.545 64.125 70.7836 61.2386 70.7836 57.8068C70.7836 54.8523 71.329 52.4091 72.42 50.4773C73.5109 48.5455 74.9995 47 76.8859 45.8409C78.7722 44.6818 80.8972 43.8068 83.2609 43.2159C85.6472 42.6023 88.1131 42.1591 90.6586 41.8864C93.7268 41.5682 96.2154 41.2841 98.1245 41.0341C100.034 40.7614 101.42 40.3523 102.284 39.8068C103.17 39.2386 103.613 38.3636 103.613 37.1818V36.9773C103.613 34.4091 102.852 32.4205 101.329 31.0114C99.8063 29.6023 97.6131 28.8977 94.7495 28.8977C91.7268 28.8977 89.329 29.5568 87.5563 30.875C85.8063 32.1932 84.6245 33.75 84.0109 35.5455L72.4881 33.9091C73.3972 30.7273 74.8972 28.0682 76.9881 25.9318C79.079 23.7727 81.6359 22.1591 84.6586 21.0909C87.6813 20 91.0222 19.4545 94.6813 19.4545C97.204 19.4545 99.7154 19.75 102.215 20.3409C104.715 20.9318 106.999 21.9091 109.068 23.2727C111.136 24.6136 112.795 26.4432 114.045 28.7614C115.318 31.0795 115.954 33.9773 115.954 37.4545V72.5H104.09V65.3068H103.681C102.931 66.7614 101.874 68.125 100.511 69.3977C99.17 70.6477 97.4768 71.6591 95.4313 72.4318C93.4086 73.1818 91.0336 73.5568 88.3063 73.5568ZM91.5109 64.4886C93.9881 64.4886 96.1359 64 97.954 63.0227C99.7722 62.0227 101.17 60.7045 102.147 59.0682C103.147 57.4318 103.647 55.6477 103.647 53.7159V47.5455C103.261 47.8636 102.602 48.1591 101.67 48.4318C100.761 48.7045 99.7381 48.9432 98.6018 49.1477C97.4654 49.3523 96.3404 49.5341 95.2268 49.6932C94.1131 49.8523 93.1472 49.9886 92.329 50.1023C90.4881 50.3523 88.8404 50.7614 87.3859 51.3295C85.9313 51.8977 84.7836 52.6932 83.9427 53.7159C83.1018 54.7159 82.6813 56.0114 82.6813 57.6023C82.6813 59.875 83.5109 61.5909 85.17 62.75C86.829 63.9091 88.9427 64.4886 91.5109 64.4886ZM118.989 72.5L118.921 62.3409H120.728C122.092 62.3409 123.239 62.0341 124.171 61.4205C125.103 60.8068 125.876 59.7841 126.489 58.3523C127.103 56.8977 127.58 54.9432 127.921 52.4886C128.262 50.0341 128.501 46.9773 128.637 43.3182L129.558 20.1364H167.739V72.5H155.808V30.2614H140.774L139.955 47.1364C139.751 51.5 139.262 55.2841 138.489 58.4886C137.739 61.6705 136.671 64.2955 135.285 66.3636C133.921 68.4318 132.205 69.9773 130.137 71C128.069 72 125.626 72.5 122.808 72.5H118.989ZM182.758 37.1818H198.201C204.883 37.1818 210.053 38.8068 213.712 42.0568C217.372 45.3068 219.212 49.5682 219.235 54.8409C219.212 58.2727 218.372 61.3182 216.712 63.9773C215.076 66.6364 212.69 68.7273 209.553 70.25C206.44 71.75 202.656 72.5 198.201 72.5H174.406V20.1364H186.303V62.375H198.201C200.883 62.375 203.087 61.6932 204.815 60.3295C206.542 58.9432 207.406 57.1705 207.406 55.0114C207.406 52.7386 206.542 50.8864 204.815 49.4545C203.087 48.0227 200.883 47.3068 198.201 47.3068H182.758V37.1818ZM260.018 41.2045V51.3295H232.131V41.2045H260.018ZM235.95 20.1364V72.5H224.052V20.1364H235.95ZM268.097 20.1364V72.5H256.234V20.1364H268.097ZM297.664 73.5227C292.55 73.5227 288.119 72.3977 284.369 70.1477C280.619 67.8977 277.71 64.75 275.641 60.7045C273.596 56.6591 272.573 51.9318 272.573 46.5227C272.573 41.1136 273.596 36.375 275.641 32.3068C277.71 28.2386 280.619 25.0795 284.369 22.8295C288.119 20.5795 292.55 19.4545 297.664 19.4545C302.778 19.4545 307.21 20.5795 310.96 22.8295C314.71 25.0795 317.607 28.2386 319.653 32.3068C321.721 36.375 322.755 41.1136 322.755 46.5227C322.755 51.9318 321.721 56.6591 319.653 60.7045C317.607 64.75 314.71 67.8977 310.96 70.1477C307.21 72.3977 302.778 73.5227 297.664 73.5227ZM297.732 63.6364C300.505 63.6364 302.823 62.875 304.687 61.3523C306.55 59.8068 307.937 57.7386 308.846 55.1477C309.778 52.5568 310.244 49.6705 310.244 46.4886C310.244 43.2841 309.778 40.3864 308.846 37.7955C307.937 35.1818 306.55 33.1023 304.687 31.5568C302.823 30.0114 300.505 29.2386 297.732 29.2386C294.891 29.2386 292.528 30.0114 290.641 31.5568C288.778 33.1023 287.38 35.1818 286.448 37.7955C285.539 40.3864 285.085 43.2841 285.085 46.4886C285.085 49.6705 285.539 52.5568 286.448 55.1477C287.38 57.7386 288.778 59.8068 290.641 61.3523C292.528 62.875 294.891 63.6364 297.732 63.6364ZM369.435 0.772724L373.731 8.75C372.208 10.0682 370.503 11.0227 368.617 11.6136C366.731 12.2045 364.515 12.5909 361.969 12.7727C359.447 12.9318 356.447 13.0455 352.969 13.1136C349.06 13.2045 345.867 13.9432 343.39 15.3295C340.913 16.7159 339.015 18.8182 337.697 21.6364C336.378 24.4318 335.515 28 335.106 32.3409H335.685C337.322 29.1364 339.617 26.6932 342.572 25.0114C345.526 23.3295 348.992 22.4886 352.969 22.4886C357.31 22.4886 361.14 23.4659 364.458 25.4205C367.799 27.3523 370.401 30.1591 372.265 33.8409C374.151 37.5227 375.094 41.9773 375.094 47.2045C375.094 52.5909 374.083 57.2614 372.06 61.2159C370.038 65.1477 367.163 68.1818 363.435 70.3182C359.731 72.4545 355.333 73.5227 350.242 73.5227C345.174 73.5227 340.765 72.4205 337.015 70.2159C333.288 67.9886 330.401 64.7045 328.356 60.3636C326.333 56 325.322 50.625 325.322 44.2386V39.5341C325.322 27.2159 327.617 18.0227 332.208 11.9545C336.799 5.88636 343.606 2.79545 352.628 2.68182C355.31 2.63636 357.708 2.625 359.822 2.64772C361.958 2.67045 363.822 2.56818 365.413 2.34091C367.003 2.11364 368.344 1.59091 369.435 0.772724ZM350.31 63.6364C352.833 63.6364 355.015 62.9886 356.856 61.6932C358.697 60.375 360.106 58.5114 361.083 56.1023C362.083 53.6932 362.583 50.8409 362.583 47.5455C362.583 44.2955 362.083 41.5341 361.083 39.2614C360.083 36.9659 358.663 35.2159 356.822 34.0114C354.981 32.8068 352.788 32.2045 350.242 32.2045C348.333 32.2045 346.617 32.5455 345.094 33.2273C343.572 33.9091 342.276 34.9091 341.208 36.2273C340.14 37.5455 339.322 39.1477 338.753 41.0341C338.185 42.9205 337.878 45.0909 337.833 47.5455C337.833 52.4773 338.947 56.3977 341.174 59.3068C343.401 62.1932 346.447 63.6364 350.31 63.6364ZM402.675 73.5227C397.562 73.5227 393.13 72.3977 389.38 70.1477C385.63 67.8977 382.721 64.75 380.653 60.7045C378.607 56.6591 377.584 51.9318 377.584 46.5227C377.584 41.1136 378.607 36.375 380.653 32.3068C382.721 28.2386 385.63 25.0795 389.38 22.8295C393.13 20.5795 397.562 19.4545 402.675 19.4545C407.789 19.4545 412.221 20.5795 415.971 22.8295C419.721 25.0795 422.618 28.2386 424.664 32.3068C426.732 36.375 427.766 41.1136 427.766 46.5227C427.766 51.9318 426.732 56.6591 424.664 60.7045C422.618 64.75 419.721 67.8977 415.971 70.1477C412.221 72.3977 407.789 73.5227 402.675 73.5227ZM402.743 63.6364C405.516 63.6364 407.834 62.875 409.698 61.3523C411.562 59.8068 412.948 57.7386 413.857 55.1477C414.789 52.5568 415.255 49.6705 415.255 46.4886C415.255 43.2841 414.789 40.3864 413.857 37.7955C412.948 35.1818 411.562 33.1023 409.698 31.5568C407.834 30.0114 405.516 29.2386 402.743 29.2386C399.903 29.2386 397.539 30.0114 395.653 31.5568C393.789 33.1023 392.391 35.1818 391.459 37.7955C390.55 40.3864 390.096 43.2841 390.096 46.4886C390.096 49.6705 390.55 52.5568 391.459 55.1477C392.391 57.7386 393.789 59.8068 395.653 61.3523C397.539 62.875 399.903 63.6364 402.743 63.6364ZM444.378 55.7955L465.344 20.1364H478.026V72.5H466.094V36.8068L445.197 72.5H432.481V20.1364H444.378V55.7955ZM461.969 2.13636H471.208C471.208 6.11363 469.765 9.34091 466.878 11.8182C464.015 14.2727 460.128 15.5 455.219 15.5C450.356 15.5 446.481 14.2727 443.594 11.8182C440.731 9.34091 439.31 6.11363 439.333 2.13636H448.503C448.503 3.77273 449.003 5.23863 450.003 6.53409C451.026 7.80681 452.765 8.44318 455.219 8.44318C457.628 8.44318 459.344 7.80681 460.367 6.53409C461.412 5.26136 461.947 3.79545 461.969 2.13636ZM492.542 73.25C490.473 73.25 488.701 72.5227 487.223 71.0682C485.746 69.6136 485.019 67.8409 485.042 65.75C485.019 63.7045 485.746 61.9545 487.223 60.5C488.701 59.0455 490.473 58.3182 492.542 58.3182C494.542 58.3182 496.28 59.0455 497.758 60.5C499.258 61.9545 500.019 63.7045 500.042 65.75C500.019 67.1364 499.655 68.3977 498.951 69.5341C498.269 70.6705 497.36 71.5795 496.223 72.2614C495.11 72.9205 493.883 73.25 492.542 73.25Z" fill="white"/>
<path d="M507.569 72.5V2.68182H552.296V13.2841H520.216V32.2386H549.228V42.8409H520.216V72.5H507.569ZM558.059 2.68182H573.536L594.263 53.2727H595.081L615.809 2.68182H631.286V72.5H619.15V24.5341H618.502L599.206 72.2955H590.138L570.843 24.4318H570.195V72.5H558.059V2.68182Z" fill="#FBFF00"/>
</svg>
