<svg width="491" height="117" viewBox="0 0 491 117" fill="none" xmlns="http://www.w3.org/2000/svg">
<path d="M51.3345 56.0682L38.1413 56.8864C38.0732 55.7273 37.755 54.6932 37.1868 53.7841C36.6413 52.8523 35.8345 52.1136 34.7663 51.5682C33.7209 51.0227 32.4027 50.75 30.8118 50.75C28.4254 50.75 26.3004 51.2955 24.4368 52.3864C22.5732 53.4773 21.5163 54.875 21.2663 56.5795C21.0618 57.6705 21.3459 58.5909 22.1186 59.3409C22.8913 60.0909 24.4482 60.7273 26.7891 61.25L35.9936 63.1591C40.9027 64.2045 44.4482 65.9432 46.63 68.375C48.8345 70.8068 49.6186 73.9886 48.9822 77.9205C48.4141 81.2614 46.9482 84.1818 44.5845 86.6818C42.2209 89.1591 39.2209 91.0909 35.5845 92.4773C31.9482 93.8409 27.9141 94.5227 23.4822 94.5227C16.3686 94.5227 10.9595 93.0682 7.25497 90.1591C3.55043 87.25 1.76634 83.3068 1.9027 78.3295L16.0845 77.5795C16.1982 79.7159 16.9482 81.3295 18.3345 82.4205C19.7209 83.4886 21.6186 84.0341 24.0277 84.0568C26.7322 84.1023 29.0277 83.5455 30.9141 82.3864C32.8232 81.2045 33.9027 79.7727 34.1527 78.0909C34.3345 76.9091 33.9936 75.9545 33.13 75.2273C32.2891 74.5 30.7436 73.8977 28.4936 73.4205L19.7663 71.6136C14.8118 70.5909 11.255 68.7614 9.09588 66.125C6.93679 63.4886 6.19815 60.1364 6.87997 56.0682C7.42543 52.8182 8.7777 50.0341 10.9368 47.7159C13.1186 45.375 15.9254 43.5795 19.3572 42.3295C22.8118 41.0795 26.7095 40.4545 31.0504 40.4545C37.8459 40.4545 42.9595 41.8523 46.3913 44.6477C49.8459 47.4432 51.4936 51.25 51.3345 56.0682ZM50.7021 93.5L59.4294 41.1364H73.9521L65.2249 93.5H50.7021ZM68.1908 34.3182C66.0317 34.3182 64.2476 33.6023 62.8385 32.1705C61.4521 30.7159 60.8839 28.9886 61.1339 26.9886C61.3839 24.9432 62.3612 23.2159 64.0658 21.8068C65.7703 20.375 67.7021 19.6591 69.8612 19.6591C72.0203 19.6591 73.7817 20.375 75.1453 21.8068C76.5089 23.2159 77.0771 24.9432 76.8499 26.9886C76.6226 28.9886 75.6567 30.7159 73.9521 32.1705C72.2703 33.6023 70.3499 34.3182 68.1908 34.3182ZM72.1607 93.5L80.8879 41.1364H94.6947L93.1947 50.375H93.7743C95.3652 47.3068 97.5811 44.8864 100.422 43.1136C103.286 41.3409 106.502 40.4545 110.07 40.4545C113.615 40.4545 116.502 41.3523 118.729 43.1477C120.979 44.9205 122.274 47.3295 122.615 50.375H123.161C124.706 47.375 127.036 44.9773 130.149 43.1818C133.263 41.3636 136.74 40.4545 140.581 40.4545C145.422 40.4545 149.127 42.0114 151.695 45.125C154.263 48.2386 155.07 52.625 154.115 58.2841L148.252 93.5H133.729L139.183 61.1477C139.615 58.2159 139.183 56.0341 137.888 54.6023C136.592 53.1477 134.786 52.4205 132.467 52.4205C129.831 52.4205 127.638 53.2614 125.888 54.9432C124.138 56.6023 123.058 58.7955 122.649 61.5227L117.229 93.5H103.149L108.672 60.8409C109.058 58.25 108.638 56.2045 107.411 54.7045C106.206 53.1818 104.399 52.4205 101.99 52.4205C100.399 52.4205 98.8879 52.8295 97.4561 53.6477C96.047 54.4432 94.8538 55.5682 93.8766 57.0227C92.8993 58.4545 92.2629 60.1364 91.9675 62.0682L86.6493 93.5H72.1607ZM151.65 113.136L163.719 41.1364H178.037L176.571 49.9318H177.219C178.082 48.5227 179.23 47.0909 180.662 45.6364C182.116 44.1591 183.923 42.9318 186.082 41.9545C188.241 40.9545 190.775 40.4545 193.685 40.4545C197.525 40.4545 200.878 41.4545 203.741 43.4545C206.605 45.4318 208.673 48.4205 209.946 52.4205C211.241 56.3977 211.389 61.3864 210.389 67.3864C209.435 73.2273 207.673 78.1591 205.105 82.1818C202.56 86.1818 199.503 89.2159 195.935 91.2841C192.389 93.3295 188.628 94.3523 184.65 94.3523C181.832 94.3523 179.514 93.8864 177.696 92.9545C175.9 92.0227 174.503 90.8523 173.503 89.4432C172.503 88.0114 171.798 86.5682 171.389 85.1136H170.844L166.207 113.136H151.65ZM173.571 67.3182C173.071 70.4318 173.048 73.1477 173.503 75.4659C173.98 77.7841 174.935 79.5909 176.366 80.8864C177.798 82.1591 179.685 82.7955 182.025 82.7955C184.389 82.7955 186.491 82.1477 188.332 80.8523C190.173 79.5341 191.707 77.7159 192.935 75.3977C194.162 73.0568 195.037 70.3636 195.56 67.3182C196.037 64.2955 196.048 61.6364 195.594 59.3409C195.139 57.0455 194.207 55.25 192.798 53.9545C191.389 52.6591 189.48 52.0114 187.071 52.0114C184.73 52.0114 182.628 52.6364 180.764 53.8864C178.923 55.1364 177.389 56.9091 176.162 59.2045C174.935 61.5 174.071 64.2045 173.571 67.3182ZM236.978 23.6818L225.387 93.5H210.865L222.456 23.6818H236.978ZM255.948 94.5227C250.585 94.5227 246.141 93.4318 242.619 91.25C239.096 89.0455 236.619 85.9318 235.187 81.9091C233.778 77.8636 233.539 73.0795 234.471 67.5568C235.38 62.1705 237.21 57.4432 239.96 53.375C242.732 49.3068 246.21 46.1364 250.391 43.8636C254.573 41.5909 259.232 40.4545 264.369 40.4545C267.823 40.4545 270.948 41.0114 273.744 42.125C276.562 43.2159 278.903 44.875 280.766 47.1023C282.63 49.3068 283.903 52.0682 284.585 55.3864C285.289 58.7045 285.278 62.5909 284.55 67.0455L283.903 71.0341H239.721L241.119 62.0341H271.664C272.005 59.9432 271.869 58.0909 271.255 56.4773C270.641 54.8636 269.619 53.6023 268.187 52.6932C266.755 51.7614 264.994 51.2955 262.903 51.2955C260.766 51.2955 258.766 51.8182 256.903 52.8636C255.039 53.9091 253.471 55.2841 252.198 56.9886C250.948 58.6705 250.141 60.5 249.778 62.4773L248.175 71.4091C247.721 74.1591 247.812 76.4432 248.448 78.2614C249.107 80.0795 250.244 81.4432 251.857 82.3523C253.471 83.2386 255.516 83.6818 257.994 83.6818C259.607 83.6818 261.119 83.4545 262.528 83C263.96 82.5455 265.232 81.875 266.346 80.9886C267.46 80.0795 268.369 78.9545 269.073 77.6136L282.335 78.5C281.107 81.7273 279.244 84.5455 276.744 86.9545C274.244 89.3409 271.232 91.2045 267.71 92.5455C264.21 93.8636 260.289 94.5227 255.948 94.5227ZM321.469 41.1364L319.662 52.0455H288.094L289.935 41.1364H321.469ZM299.14 28.5909H313.662L305.549 77.4091C305.321 78.75 305.356 79.7955 305.651 80.5455C305.946 81.2727 306.435 81.7841 307.117 82.0795C307.821 82.375 308.662 82.5227 309.64 82.5227C310.321 82.5227 311.015 82.4659 311.719 82.3523C312.424 82.2159 312.958 82.1136 313.321 82.0455L313.867 92.8523C313.049 93.1023 311.946 93.375 310.56 93.6705C309.196 93.9659 307.583 94.1477 305.719 94.2159C302.174 94.3523 299.174 93.8864 296.719 92.8182C294.265 91.7273 292.503 90.0568 291.435 87.8068C290.367 85.5568 290.14 82.7273 290.753 79.3182L299.14 28.5909ZM317.402 93.5L326.129 41.1364H340.652L331.925 93.5H317.402ZM334.891 34.3182C332.732 34.3182 330.948 33.6023 329.538 32.1705C328.152 30.7159 327.584 28.9886 327.834 26.9886C328.084 24.9432 329.061 23.2159 330.766 21.8068C332.47 20.375 334.402 19.6591 336.561 19.6591C338.72 19.6591 340.482 20.375 341.845 21.8068C343.209 23.2159 343.777 24.9432 343.55 26.9886C343.323 28.9886 342.357 30.7159 340.652 32.1705C338.97 33.6023 337.05 34.3182 334.891 34.3182ZM338.861 93.5L347.588 41.1364H361.395L359.895 50.375H360.474C362.065 47.3068 364.281 44.8864 367.122 43.1136C369.986 41.3409 373.202 40.4545 376.77 40.4545C380.315 40.4545 383.202 41.3523 385.429 43.1477C387.679 44.9205 388.974 47.3295 389.315 50.375H389.861C391.406 47.375 393.736 44.9773 396.849 43.1818C399.963 41.3636 403.44 40.4545 407.281 40.4545C412.122 40.4545 415.827 42.0114 418.395 45.125C420.963 48.2386 421.77 52.625 420.815 58.2841L414.952 93.5H400.429L405.883 61.1477C406.315 58.2159 405.883 56.0341 404.588 54.6023C403.292 53.1477 401.486 52.4205 399.167 52.4205C396.531 52.4205 394.338 53.2614 392.588 54.9432C390.838 56.6023 389.758 58.7955 389.349 61.5227L383.929 93.5H369.849L375.372 60.8409C375.758 58.25 375.338 56.2045 374.111 54.7045C372.906 53.1818 371.099 52.4205 368.69 52.4205C367.099 52.4205 365.588 52.8295 364.156 53.6477C362.747 54.4432 361.554 55.5682 360.577 57.0227C359.599 58.4545 358.963 60.1364 358.667 62.0682L353.349 93.5H338.861ZM445.248 94.5227C439.885 94.5227 435.441 93.4318 431.919 91.25C428.396 89.0455 425.919 85.9318 424.487 81.9091C423.078 77.8636 422.839 73.0795 423.771 67.5568C424.68 62.1705 426.51 57.4432 429.26 53.375C432.032 49.3068 435.51 46.1364 439.691 43.8636C443.873 41.5909 448.532 40.4545 453.669 40.4545C457.123 40.4545 460.248 41.0114 463.044 42.125C465.862 43.2159 468.203 44.875 470.066 47.1023C471.93 49.3068 473.203 52.0682 473.885 55.3864C474.589 58.7045 474.578 62.5909 473.85 67.0455L473.203 71.0341H429.021L430.419 62.0341H460.964C461.305 59.9432 461.169 58.0909 460.555 56.4773C459.941 54.8636 458.919 53.6023 457.487 52.6932C456.055 51.7614 454.294 51.2955 452.203 51.2955C450.066 51.2955 448.066 51.8182 446.203 52.8636C444.339 53.9091 442.771 55.2841 441.498 56.9886C440.248 58.6705 439.441 60.5 439.078 62.4773L437.475 71.4091C437.021 74.1591 437.112 76.4432 437.748 78.2614C438.407 80.0795 439.544 81.4432 441.157 82.3523C442.771 83.2386 444.816 83.6818 447.294 83.6818C448.907 83.6818 450.419 83.4545 451.828 83C453.26 82.5455 454.532 81.875 455.646 80.9886C456.76 80.0795 457.669 78.9545 458.373 77.6136L471.635 78.5C470.407 81.7273 468.544 84.5455 466.044 86.9545C463.544 89.3409 460.532 91.2045 457.01 92.5455C453.51 93.8636 449.589 94.5227 445.248 94.5227Z" fill="white"/>
<path d="M480.254 90L481.461 82.7273H484.189C484.747 82.7273 485.201 82.8243 485.549 83.0185C485.897 83.2126 486.139 83.4848 486.277 83.8352C486.414 84.1832 486.444 84.5893 486.366 85.0533C486.29 85.5173 486.124 85.9209 485.868 86.2642C485.615 86.6051 485.28 86.8691 484.863 87.0561C484.449 87.2431 483.963 87.3366 483.404 87.3366H481.461L481.646 86.2429H483.415C483.741 86.2429 484.016 86.1979 484.238 86.108C484.461 86.0156 484.636 85.8819 484.764 85.7067C484.894 85.5291 484.981 85.3113 485.023 85.0533C485.063 84.7952 485.048 84.575 484.977 84.3928C484.908 84.2081 484.777 84.0684 484.583 83.9737C484.391 83.8767 484.132 83.8281 483.805 83.8281H482.598L481.571 90H480.254ZM484.558 86.7045L485.812 90H484.341L483.12 86.7045H484.558Z" fill="white"/>
<circle cx="483.491" cy="86" r="7" stroke="white"/>
</svg>
